<svg width="475" height="481" viewBox="0 0 475 481" fill="none" xmlns="http://www.w3.org/2000/svg">
<rect width="475" height="481" rx="58" fill="#59C9A5"/>
<path d="M217.834 129.506C227.609 158.832 217.629 188.432 195.549 195.678C173.469 202.924 147.629 185.014 137.853 155.687C128.078 126.361 138.058 96.7617 160.139 89.5156C182.219 82.2695 208.058 100.18 217.834 129.506ZM131.633 201.762C144.553 223.91 141.408 249.682 124.66 259.252C107.912 268.822 83.8495 258.637 70.9979 236.488C58.1464 214.34 61.1542 188.568 77.9022 178.998C94.6503 169.428 118.713 179.613 131.564 201.762H131.633ZM110.305 340.258C146.125 243.666 209.767 219.125 238 219.125C266.232 219.125 329.875 243.666 365.695 340.258C368.156 346.889 369.25 353.998 369.25 361.107V362.201C369.25 379.838 354.963 394.125 337.326 394.125C329.465 394.125 321.672 393.168 314.084 391.254L253.928 376.215C243.469 373.617 232.531 373.617 222.072 376.215L161.916 391.254C154.328 393.168 146.535 394.125 138.674 394.125C121.037 394.125 106.75 379.838 106.75 362.201V361.107C106.75 353.998 107.844 346.889 110.305 340.258ZM351.34 259.252C334.592 249.682 331.447 223.91 344.367 201.762C357.287 179.613 381.281 169.428 398.029 178.998C414.777 188.568 417.922 214.34 405.002 236.488C392.082 258.637 368.088 268.822 351.34 259.252ZM274.982 195.678C252.902 188.432 242.922 158.832 252.697 129.506C262.473 100.18 288.312 82.2695 310.392 89.5156C332.473 96.7617 342.453 126.361 332.678 155.687C322.902 185.014 297.062 202.924 274.982 195.678Z" fill="white"/>
</svg>
